<svg width="108" height="108" viewBox="0 0 108 108" fill="none" xmlns="http://www.w3.org/2000/svg">
<path d="M59.182 0H48.0875C46.175 0 44.6246 1.55042 44.6246 3.46296V14.5574C44.6246 16.47 46.175 18.0204 48.0875 18.0204H59.182C61.0945 18.0204 62.645 16.47 62.645 14.5574V3.46296C62.645 1.55042 61.0945 0 59.182 0Z" fill="#131313"/>
<path d="M59.182 44.6246H48.0875C46.175 44.6246 44.6246 46.175 44.6246 48.0875V59.182C44.6246 61.0945 46.175 62.645 48.0875 62.645H59.182C61.0945 62.645 62.645 61.0945 62.645 59.182V48.0875C62.645 46.175 61.0945 44.6246 59.182 44.6246Z" fill="#131313"/>
<path d="M19.63 11.7878L11.785 19.6328C10.4326 20.9852 10.4326 23.1778 11.785 24.5302L19.63 32.3751C20.9823 33.7275 23.175 33.7275 24.5273 32.3751L32.3723 24.5302C33.7247 23.1778 33.7247 20.9852 32.3723 19.6328L24.5273 11.7878C23.175 10.4355 20.9823 10.4355 19.63 11.7878Z" fill="#131313"/>
<path d="M14.5574 46.118C15.6439 46.118 16.527 47.001 16.527 48.0875V59.182C16.527 60.2685 15.6439 61.1516 14.5574 61.1516H3.46296C2.37646 61.1516 1.49339 60.2685 1.49339 59.182V48.0875C1.49339 47.001 2.37646 46.118 3.46296 46.118H14.5574ZM14.5574 44.6246H3.46296C1.54968 44.6246 0 46.1742 0 48.0875V59.182C0 61.0953 1.54968 62.645 3.46296 62.645H14.5574C16.4707 62.645 18.0204 61.0953 18.0204 59.182V48.0875C18.0204 46.1742 16.4707 44.6246 14.5574 44.6246Z" fill="#131313"/>
<path d="M22.0807 75.3757C22.6045 75.3757 23.1023 75.5792 23.4746 75.9515L31.3182 83.7951C32.0844 84.5612 32.0844 85.8122 31.3182 86.5784L23.4746 94.422C23.1023 94.7943 22.6088 94.9978 22.0807 94.9978C21.5526 94.9978 21.0592 94.7943 20.6869 94.422L12.8433 86.5784C12.0771 85.8122 12.0771 84.5612 12.8433 83.7951L20.6869 75.9515C21.0592 75.5792 21.5526 75.3757 22.0807 75.3757ZM22.0807 73.8823C21.1934 73.8823 20.3103 74.2199 19.6307 74.8952L11.7871 82.7388C10.4365 84.0894 10.4365 86.2841 11.7871 87.6346L19.6307 95.4782C20.306 96.1535 21.1934 96.4911 22.0807 96.4911C22.9681 96.4911 23.8512 96.1535 24.5308 95.4782L32.3744 87.6346C33.725 86.2841 33.725 84.0894 32.3744 82.7388L24.5308 74.8952C23.8555 74.2199 22.9681 73.8823 22.0807 73.8823Z" fill="#131313"/>
<path d="M59.1777 90.7426C60.2642 90.7426 61.1472 91.6257 61.1472 92.7122V103.807C61.1472 104.893 60.2642 105.776 59.1777 105.776H48.0832C46.9967 105.776 46.1136 104.893 46.1136 103.807V92.7122C46.1136 91.6257 46.9967 90.7426 48.0832 90.7426H59.1777ZM59.1777 89.2493H48.0832C46.1699 89.2493 44.6202 90.7989 44.6202 92.7122V103.807C44.6202 105.72 46.1699 107.27 48.0832 107.27H59.1777C61.091 107.27 62.6406 105.72 62.6406 103.807V92.7122C62.6406 90.7989 61.091 89.2493 59.1777 89.2493Z" fill="#131313"/>
<path d="M85.1845 75.3757C85.7083 75.3757 86.2061 75.5792 86.5783 75.9515L94.422 83.7951C95.1881 84.5612 95.1881 85.8122 94.422 86.5784L86.5783 94.422C86.2061 94.7943 85.7126 94.9978 85.1845 94.9978C84.6564 94.9978 84.1629 94.7943 83.7907 94.422L75.9471 86.5784C75.1809 85.8122 75.1809 84.5612 75.9471 83.7951L83.7907 75.9515C84.1629 75.5792 84.6564 75.3757 85.1845 75.3757ZM85.1845 73.8823C84.2971 73.8823 83.4141 74.2199 82.7345 74.8952L74.8908 82.7388C73.5403 84.0894 73.5403 86.2841 74.8908 87.6346L82.7345 95.4782C83.4097 96.1535 84.2971 96.4911 85.1845 96.4911C86.0719 96.4911 86.9549 96.1535 87.6346 95.4782L95.4782 87.6346C96.8287 86.2841 96.8287 84.0894 95.4782 82.7388L87.6346 74.8952C86.9593 74.2199 86.0719 73.8823 85.1845 73.8823Z" fill="#131313"/>
<path d="M103.802 46.118C104.889 46.118 105.772 47.001 105.772 48.0875V59.182C105.772 60.2685 104.889 61.1516 103.802 61.1516H92.7078C91.6213 61.1516 90.7383 60.2685 90.7383 59.182V48.0875C90.7383 47.001 91.6213 46.118 92.7078 46.118H103.802ZM103.802 44.6246H92.7078C90.7945 44.6246 89.2449 46.1742 89.2449 48.0875V59.182C89.2449 61.0953 90.7945 62.645 92.7078 62.645H103.802C105.716 62.645 107.265 61.0953 107.265 59.182V48.0875C107.265 46.1742 105.716 44.6246 103.802 44.6246Z" fill="#131313"/>
</svg>
