<svg width="264" height="108" viewBox="0 0 264 108" fill="none" xmlns="http://www.w3.org/2000/svg">
<path d="M59.1821 0H48.0876C46.1751 0 44.6246 1.55042 44.6246 3.46296V14.5574C44.6246 16.47 46.1751 18.0204 48.0876 18.0204H59.1821C61.0946 18.0204 62.645 16.47 62.645 14.5574V3.46296C62.645 1.55042 61.0946 0 59.1821 0Z" fill="#006E5B"/>
<path d="M59.1821 44.6246H48.0876C46.1751 44.6246 44.6246 46.175 44.6246 48.0876V59.182C44.6246 61.0946 46.1751 62.645 48.0876 62.645H59.1821C61.0946 62.645 62.645 61.0946 62.645 59.182V48.0876C62.645 46.175 61.0946 44.6246 59.1821 44.6246Z" fill="#006E5B"/>
<path d="M19.6352 11.7866L11.7902 19.6316C10.4379 20.9839 10.4379 23.1766 11.7902 24.5289L19.6352 32.3739C20.9876 33.7263 23.1802 33.7263 24.5326 32.3739L32.3776 24.5289C33.7299 23.1766 33.7299 20.9839 32.3776 19.6316L24.5326 11.7866C23.1802 10.4342 20.9876 10.4342 19.6352 11.7866Z" fill="#006E5B"/>
<path d="M14.5574 46.118C15.6439 46.118 16.527 47.0011 16.527 48.0876V59.182C16.527 60.2685 15.6439 61.1516 14.5574 61.1516H3.46296C2.37646 61.1516 1.49341 60.2685 1.49341 59.182V48.0876C1.49341 47.0011 2.37646 46.118 3.46296 46.118H14.5574ZM14.5574 44.6246H3.46296C1.54968 44.6246 0 46.1743 0 48.0876V59.182C0 61.0953 1.54968 62.645 3.46296 62.645H14.5574C16.4707 62.645 18.0204 61.0953 18.0204 59.182V48.0876C18.0204 46.1743 16.4707 44.6246 14.5574 44.6246Z" fill="#006E5B"/>
<path d="M22.0807 75.3757C22.6045 75.3757 23.1023 75.5792 23.4746 75.9514L31.3182 83.795C32.0844 84.5612 32.0844 85.8122 31.3182 86.5784L23.4746 94.422C23.1023 94.7943 22.6088 94.9977 22.0807 94.9977C21.5526 94.9977 21.0592 94.7943 20.6869 94.422L12.8433 86.5784C12.0771 85.8122 12.0771 84.5612 12.8433 83.795L20.6869 75.9514C21.0592 75.5792 21.5526 75.3757 22.0807 75.3757ZM22.0807 73.8823C21.1933 73.8823 20.3103 74.2199 19.6307 74.8952L11.7871 82.7388C10.4365 84.0894 10.4365 86.284 11.7871 87.6346L19.6307 95.4782C20.306 96.1535 21.1933 96.4911 22.0807 96.4911C22.9681 96.4911 23.8512 96.1535 24.5308 95.4782L32.3744 87.6346C33.725 86.284 33.725 84.0894 32.3744 82.7388L24.5308 74.8952C23.8555 74.2199 22.9681 73.8823 22.0807 73.8823Z" fill="#006E5B"/>
<path d="M59.1821 90.7426C60.2686 90.7426 61.1516 91.6257 61.1516 92.7122V103.807C61.1516 104.893 60.2686 105.776 59.1821 105.776H48.0876C47.0011 105.776 46.118 104.893 46.118 103.807V92.7122C46.118 91.6257 47.0011 90.7426 48.0876 90.7426H59.1821ZM59.1821 89.2492H48.0876C46.1743 89.2492 44.6246 90.7989 44.6246 92.7122V103.807C44.6246 105.72 46.1743 107.27 48.0876 107.27H59.1821C61.0954 107.27 62.645 105.72 62.645 103.807V92.7122C62.645 90.7989 61.0954 89.2492 59.1821 89.2492Z" fill="#006E5B"/>
<path d="M85.1889 75.3757C85.7127 75.3757 86.2105 75.5792 86.5827 75.9514L94.4264 83.795C95.1925 84.5612 95.1925 85.8122 94.4264 86.5784L86.5827 94.422C86.2105 94.7943 85.717 94.9977 85.1889 94.9977C84.6608 94.9977 84.1673 94.7943 83.7951 94.422L75.9514 86.5784C75.1853 85.8122 75.1853 84.5612 75.9514 83.795L83.7951 75.9514C84.1673 75.5792 84.6608 75.3757 85.1889 75.3757ZM85.1889 73.8823C84.3015 73.8823 83.4185 74.2199 82.7389 74.8952L74.8952 82.7388C73.5447 84.0894 73.5447 86.284 74.8952 87.6346L82.7389 95.4782C83.4141 96.1535 84.3015 96.4911 85.1889 96.4911C86.0763 96.4911 86.9593 96.1535 87.6389 95.4782L95.4826 87.6346C96.8331 86.284 96.8331 84.0894 95.4826 82.7388L87.6389 74.8952C86.9637 74.2199 86.0763 73.8823 85.1889 73.8823Z" fill="#006E5B"/>
<path d="M103.807 46.118C104.893 46.118 105.776 47.0011 105.776 48.0876V59.182C105.776 60.2685 104.893 61.1516 103.807 61.1516H92.7122C91.6257 61.1516 90.7427 60.2685 90.7427 59.182V48.0876C90.7427 47.0011 91.6257 46.118 92.7122 46.118H103.807ZM103.807 44.6246H92.7122C90.7989 44.6246 89.2493 46.1743 89.2493 48.0876V59.182C89.2493 61.0953 90.7989 62.645 92.7122 62.645H103.807C105.72 62.645 107.27 61.0953 107.27 59.182V48.0876C107.27 46.1743 105.72 44.6246 103.807 44.6246Z" fill="#006E5B"/>
<path d="M124.126 12.4624V7.37613H154.5V12.4624H124.126ZM142.28 8.64876V47.1439H136.346V8.64876H142.28Z" fill="white"/>
<path d="M158.846 12.4624V7.37613H175.447V12.4624H158.846ZM158.846 47.1439V42.0577H175.447V47.1439H158.846ZM164.283 45.8713V8.64444H170.075V45.8713H164.283Z" fill="white"/>
<path d="M181.052 47.1439V7.37613H191.225L202.384 44.5294H202.527L213.474 7.37613H223.647V47.1439H217.574L217.924 10.2028H217.855L206.696 47.1439H198.008L186.918 10.2028H186.775L187.056 47.1439H181.052Z" fill="white"/>
<path d="M230.313 47.1439V7.37613H257.861V12.5316H236.105V24.5394H253.056V29.4828H236.105V42.3391H258.567V47.1439H230.313Z" fill="white"/>
<path d="M143.903 99.071C140.09 99.071 136.744 98.2832 133.874 96.7032C131 95.1276 128.801 92.8074 127.268 89.747C125.736 86.6866 124.996 82.9639 125.043 78.5876C125.091 74.1161 125.948 70.3241 127.623 67.2161C129.294 64.1081 131.627 61.7533 134.614 60.1517C137.605 58.55 141.055 57.7492 144.964 57.7492C150.193 57.7492 154.31 58.9137 157.327 61.2468C160.34 63.58 162.296 67.004 163.188 71.5232L157.465 72.2288C156.993 70.0644 156.158 68.3329 154.959 67.0386C153.76 65.7443 152.297 64.792 150.578 64.1774C148.86 63.567 146.986 63.2597 144.964 63.2597C140.207 63.2597 136.653 64.6146 134.298 67.32C131.943 70.0298 130.766 73.6399 130.766 78.1634C130.766 83.0159 132.047 86.7689 134.614 89.431C137.181 92.0932 140.795 93.4221 145.457 93.4221C147.579 93.4221 149.531 93.0585 151.319 92.3269C153.106 91.5954 154.604 90.4915 155.803 89.0068C157.002 87.522 157.79 85.6737 158.171 83.4617H148.353V79.0118H163.963V98.2226H159.868L158.526 90.3833H158.383C158.102 91.327 157.582 92.3009 156.829 93.3139C156.076 94.3268 155.11 95.2704 153.933 96.1405C152.756 97.0106 151.345 97.7205 149.695 98.2616C148.046 98.8026 146.115 99.0754 143.903 99.0754V99.071Z" fill="white"/>
<path d="M169.824 98.2226V58.4548H183.74C187.13 58.4548 190.013 58.8184 192.394 59.55C194.77 60.2815 196.597 61.4676 197.869 63.1168C199.142 64.7661 199.778 67.0473 199.778 69.9692C199.778 71.995 199.436 73.8087 198.752 75.406C198.069 77.0076 197.047 78.2803 195.679 79.2196C194.311 80.1633 192.619 80.6308 190.593 80.6308C192.147 80.6308 193.359 80.9251 194.229 81.5138C195.099 82.1025 195.748 82.8687 196.173 83.8081C196.597 84.7517 196.878 85.7603 197.021 86.8468C197.164 87.929 197.268 88.9895 197.337 90.0241C197.406 91.0586 197.562 91.9547 197.796 92.7079C198.03 93.4611 198.441 93.9805 199.034 94.2619C199.623 94.5432 200.484 94.474 201.614 94.0498V97.582C200.956 98.1491 200.094 98.5473 199.034 98.781C197.973 99.0148 196.913 98.9455 195.857 98.5689C194.796 98.1923 193.913 97.4521 193.207 96.344C192.502 95.2401 192.147 93.6255 192.147 91.5045C192.147 89.5263 192.065 87.89 191.9 86.5957C191.736 85.3015 191.372 84.2755 190.805 83.5223C190.238 82.7692 189.368 82.2281 188.19 81.8991C187.013 81.5701 185.424 81.3796 183.424 81.332C181.425 81.2844 178.871 81.3104 175.758 81.4013V98.214H169.824V98.2226ZM175.758 77.0336H183.953C186.355 77.0336 188.333 76.8821 189.887 76.5748C191.441 76.2674 192.593 75.6441 193.35 74.7048C194.103 73.7654 194.48 72.3283 194.48 70.3977C194.48 68.1857 194.008 66.5841 193.069 65.5929C192.125 64.6059 190.762 63.9783 188.974 63.7229C187.182 63.4631 184.996 63.3333 182.403 63.3333H175.763V77.038L175.758 77.0336Z" fill="white"/>
<path d="M206.193 63.5411V58.4548H222.794V63.5411H206.193ZM206.193 98.2226V93.1364H222.794V98.2226H206.193ZM211.63 96.95V59.7231H217.422V96.95H211.63Z" fill="white"/>
<path d="M260.415 90.4872C258.415 93.3831 255.588 95.396 251.939 96.5258C248.29 97.6556 243.992 98.2226 239.048 98.2226H228.313V58.4548H239.048C243.992 58.4548 248.29 59.195 251.939 60.6798C255.588 62.1645 258.415 64.3635 260.415 67.2854C262.415 70.2072 263.419 73.878 263.419 78.3063C263.419 83.5353 262.419 87.5957 260.415 90.4916V90.4872ZM238.412 93.2793H240.602C243.143 93.2793 245.429 93.0801 247.455 92.6776C249.481 92.2793 251.221 91.5261 252.684 90.418C254.143 89.3141 255.251 87.7818 256.004 85.8252C256.757 83.873 257.134 81.3407 257.134 78.2327C257.134 74.9385 256.463 72.2071 255.121 70.0384C253.779 67.8741 251.87 66.2595 249.398 65.1989C246.927 64.1384 243.996 63.6103 240.607 63.6103H234.179V93.2793H238.416H238.412Z" fill="white"/>
</svg>
