<svg width="200" height="200" viewBox="0 0 200 200" fill="none" xmlns="http://www.w3.org/2000/svg">
<path d="M0 100C0 155.228 44.7715 200 100 200C155.228 200 200 155.228 200 100C200 44.7715 155.228 0 100 0C44.7715 0 0 44.7715 0 100Z" fill="white"/>
<path d="M105.182 47H94.0875C92.175 47 90.6246 48.5504 90.6246 50.463V61.5574C90.6246 63.47 92.175 65.0204 94.0875 65.0204H105.182C107.095 65.0204 108.645 63.47 108.645 61.5574V50.463C108.645 48.5504 107.095 47 105.182 47Z" fill="#131313"/>
<path d="M105.182 91.6246H94.0875C92.175 91.6246 90.6246 93.175 90.6246 95.0875V106.182C90.6246 108.095 92.175 109.645 94.0875 109.645H105.182C107.095 109.645 108.645 108.095 108.645 106.182V95.0875C108.645 93.175 107.095 91.6246 105.182 91.6246Z" fill="#131313"/>
<path d="M65.63 58.7878L57.785 66.6328C56.4326 67.9852 56.4326 70.1778 57.785 71.5302L65.63 79.3751C66.9823 80.7275 69.175 80.7275 70.5273 79.3751L78.3723 71.5302C79.7247 70.1778 79.7247 67.9852 78.3723 66.6328L70.5273 58.7878C69.175 57.4355 66.9823 57.4355 65.63 58.7878Z" fill="#131313"/>
<path d="M60.5574 93.118C61.6439 93.118 62.527 94.001 62.527 95.0875V106.182C62.527 107.269 61.6439 108.152 60.5574 108.152H49.463C48.3765 108.152 47.4934 107.269 47.4934 106.182V95.0875C47.4934 94.001 48.3765 93.118 49.463 93.118H60.5574ZM60.5574 91.6246H49.463C47.5497 91.6246 46 93.1742 46 95.0875V106.182C46 108.095 47.5497 109.645 49.463 109.645H60.5574C62.4707 109.645 64.0204 108.095 64.0204 106.182V95.0875C64.0204 93.1742 62.4707 91.6246 60.5574 91.6246Z" fill="#131313"/>
<path d="M68.0807 122.376C68.6045 122.376 69.1023 122.579 69.4746 122.951L77.3182 130.795C78.0844 131.561 78.0844 132.812 77.3182 133.578L69.4746 141.422C69.1023 141.794 68.6088 141.998 68.0807 141.998C67.5526 141.998 67.0592 141.794 66.6869 141.422L58.8433 133.578C58.0771 132.812 58.0771 131.561 58.8433 130.795L66.6869 122.951C67.0592 122.579 67.5526 122.376 68.0807 122.376ZM68.0807 120.882C67.1933 120.882 66.3103 121.22 65.6307 121.895L57.7871 129.739C56.4365 131.089 56.4365 133.284 57.7871 134.635L65.6307 142.478C66.306 143.154 67.1933 143.491 68.0807 143.491C68.9681 143.491 69.8512 143.154 70.5308 142.478L78.3744 134.635C79.7249 133.284 79.7249 131.089 78.3744 129.739L70.5308 121.895C69.8555 121.22 68.9681 120.882 68.0807 120.882Z" fill="#131313"/>
<path d="M105.178 137.743C106.264 137.743 107.147 138.626 107.147 139.712V150.807C107.147 151.893 106.264 152.776 105.178 152.776H94.0832C92.9967 152.776 92.1137 151.893 92.1137 150.807V139.712C92.1137 138.626 92.9967 137.743 94.0832 137.743H105.178ZM105.178 136.249H94.0832C92.1699 136.249 90.6203 137.799 90.6203 139.712V150.807C90.6203 152.72 92.1699 154.27 94.0832 154.27H105.178C107.091 154.27 108.641 152.72 108.641 150.807V139.712C108.641 137.799 107.091 136.249 105.178 136.249Z" fill="#131313"/>
<path d="M131.185 122.376C131.708 122.376 132.206 122.579 132.578 122.951L140.422 130.795C141.188 131.561 141.188 132.812 140.422 133.578L132.578 141.422C132.206 141.794 131.713 141.998 131.185 141.998C130.656 141.998 130.163 141.794 129.791 141.422L121.947 133.578C121.181 132.812 121.181 131.561 121.947 130.795L129.791 122.951C130.163 122.579 130.656 122.376 131.185 122.376ZM131.185 120.882C130.297 120.882 129.414 121.22 128.734 121.895L120.891 129.739C119.54 131.089 119.54 133.284 120.891 134.635L128.734 142.478C129.41 143.154 130.297 143.491 131.185 143.491C132.072 143.491 132.955 143.154 133.635 142.478L141.478 134.635C142.829 133.284 142.829 131.089 141.478 129.739L133.635 121.895C132.959 121.22 132.072 120.882 131.185 120.882Z" fill="#131313"/>
<path d="M149.802 93.118C150.889 93.118 151.772 94.001 151.772 95.0875V106.182C151.772 107.269 150.889 108.152 149.802 108.152H138.708C137.621 108.152 136.738 107.269 136.738 106.182V95.0875C136.738 94.001 137.621 93.118 138.708 93.118H149.802ZM149.802 91.6246H138.708C136.795 91.6246 135.245 93.1742 135.245 95.0875V106.182C135.245 108.095 136.795 109.645 138.708 109.645H149.802C151.716 109.645 153.265 108.095 153.265 106.182V95.0875C153.265 93.1742 151.716 91.6246 149.802 91.6246Z" fill="#131313"/>
</svg>
